# xmcd
#
# Track frame offsets:
#	150
#	19130
#	36380
#	53697
#	70132
#	91612
#	107100
#	123002
#	143660
#	159247
#
# Disc length: 2295 seconds
#
# Revision: 5
# Processed by: cddbd v1.5.2PL0 Copyright (c) Steve Scherf et al.
# Submitted via: EasyCDDAExtractor 15.3.0.1
#
DISCID=7508f50a
DTITLE=Ana Gabriel - Soy, Como Soy
DYEAR=1999
DGENRE=Latin
TTITLE0=Lo Se
TTITLE1=Si Me Faltaras
TTITLE2=No A Pedir Perdon
TTITLE3=Obsesion
TTITLE4=Siempre Tu
TTITLE5=Por Que Volviste
TTITLE6=Solo Quiero Ser Amada
TTITLE7=Me Haces Falta
TTITLE8=Soy Como Quise Ser
TTITLE9=Claro De Luna
EXTD=
EXTT0=
EXTT1=
EXTT2=
EXTT3=
EXTT4=
EXTT5=
EXTT6=
EXTT7=
EXTT8=
EXTT9=
PLAYORDER=
